<svg width="43" height="43" viewBox="0 0 43 43" fill="none" xmlns="http://www.w3.org/2000/svg">
    <g filter="url(#filter0_d_846_34)">
        <path d="M11.9349 34.9744C11.9197 34.9744 11.9121 34.9744 11.9121 34.9744C11.9121 34.9573 11.9197 34.9573 11.9349 34.9744L11.9577 35C11.9425 34.9829 11.9349 34.9744 11.9349 34.9744ZM18.9805 22C18.7068 22.4274 18.3572 22.7436 17.9316 22.9487C17.5668 23.1197 17.1944 23.188 16.8143 23.1539C16.2975 23.1026 15.8491 22.8718 15.4691 22.4615C15.3322 22.3248 15.2106 22.1624 15.1042 21.9743C15.1042 21.9743 15.1042 21.9658 15.1042 21.9487C15.1194 21.9487 15.127 21.9487 15.127 21.9487C15.1574 21.9658 15.1802 21.9829 15.1954 22C15.3322 22.0855 15.4767 22.1453 15.6287 22.1795C15.8415 22.2308 16.0467 22.2137 16.2443 22.1282C16.4495 22.0257 16.6319 21.8974 16.7687 21.6923C16.9511 21.4615 17.0651 21.2051 17.1335 20.9231C17.1792 20.7008 17.1944 20.4786 17.1792 20.2564C17.1564 19.8718 17.0651 19.5128 16.8599 19.1795C16.7383 18.9915 16.5863 18.8376 16.4039 18.7179C16.2367 18.5983 16.0543 18.5385 15.8567 18.5385C15.6439 18.5385 15.4387 18.5983 15.241 18.7179C15.1498 18.7863 15.0586 18.8633 14.9674 18.9487C14.937 18.9829 14.9066 19.0171 14.8762 19.0513C14.8762 19.0513 14.8534 19.0513 14.8306 19.0513C14.8534 19.0257 14.8762 18.9744 14.8762 18.9487C14.9522 18.7607 15.0434 18.5726 15.1498 18.3846C15.355 18.0256 15.6287 17.7436 15.9707 17.5385C16.3203 17.3162 16.6927 17.2137 17.0879 17.2308C17.3616 17.2479 17.6276 17.3162 17.886 17.4359C18.2052 17.5897 18.4864 17.812 18.7296 18.1026C19.1173 18.5897 19.3681 19.1282 19.4593 19.7692C19.5733 20.5897 19.3909 21.3333 18.9805 22ZM38.9772 19.7949C38.9772 20.1026 38.962 20.4017 38.9316 20.6923C38.9164 20.829 38.9088 20.9573 38.9088 21.0769C38.8328 21.812 38.7188 22.547 38.5668 23.2821C38.3844 24.171 38.1411 25.0427 37.8371 25.8974C37.4571 26.9573 36.9935 27.9744 36.4463 28.9487C36.2334 29.3419 36.0054 29.718 35.7622 30.0769C35.7394 30.1282 35.7166 30.1795 35.671 30.2051C35.671 30.2051 35.6482 30.2051 35.6254 30.2051C35.6102 30.1539 35.595 30.1026 35.5798 30.0513C35.4886 29.7607 35.3746 29.4786 35.2378 29.2051C35.101 28.9145 34.949 28.6496 34.7818 28.4103C34.7514 28.3761 34.7286 28.3419 34.7134 28.3077C34.6678 28.2308 34.6906 28.2308 34.7362 28.2051C34.7666 28.188 34.797 28.1795 34.8274 28.1795C34.9946 28.094 35.1162 27.9573 35.1922 27.7692C35.2378 27.6325 35.2682 27.4957 35.2834 27.359C35.2834 27.1196 35.2758 26.8804 35.2606 26.641C35.1998 26.1453 35.0858 25.6667 34.9186 25.2051C34.645 24.453 34.2421 23.8034 33.7101 23.2564C33.2997 22.8461 32.8664 22.5385 32.3648 22.2821C31.8404 22.0256 31.2932 21.8462 30.7231 21.7436C30.5559 21.7094 30.3811 21.6838 30.1987 21.6667C30.0315 21.6496 29.8643 21.6325 29.6971 21.6154C29.5755 21.6154 29.4539 21.6068 29.3322 21.5897C29.1346 21.5897 28.9294 21.5983 28.7166 21.6154C28.595 21.6154 28.4658 21.6154 28.329 21.6154C28.2986 21.6154 28.2834 21.6068 28.2834 21.5897C28.2682 21.5555 28.253 21.5214 28.2378 21.4872C28.101 21.1795 27.8958 20.8974 27.6449 20.6667C27.3257 20.3333 26.9609 20.1026 26.5505 19.9487C26.2617 19.8291 25.9577 19.735 25.6384 19.6667C25.4408 19.6325 25.2432 19.6154 25.0456 19.6154C24.8936 19.5983 24.734 19.5898 24.5668 19.5898C24.5364 19.5898 24.5136 19.5898 24.4984 19.5898C24.4756 19.5898 24.4528 19.5641 24.4528 19.5385C24.4528 19.5214 24.4528 19.5043 24.4528 19.4872C24.4376 19.3846 24.43 19.2821 24.43 19.1795C24.43 19 24.4072 18.8205 24.3844 18.6154C24.3692 18.3932 24.3464 18.1709 24.316 17.9487C24.2932 17.9231 24.2932 17.8974 24.2704 17.8718C24.3312 17.8034 24.3844 17.7351 24.43 17.6667C24.43 17.6496 24.4376 17.641 24.4528 17.641H24.4756C24.506 17.6581 24.5288 17.6838 24.544 17.7179C24.6504 17.906 24.7644 18.094 24.886 18.2821C24.962 18.4017 25.038 18.5128 25.114 18.6154C25.2736 18.8461 25.456 19.0257 25.6612 19.1795C26.0033 19.4616 26.4137 19.6154 26.8469 19.5898C26.9229 19.5898 26.9989 19.5812 27.0749 19.5641C27.3637 19.4957 27.6297 19.3675 27.873 19.1795C28.1466 18.9744 28.3518 18.718 28.5342 18.4103C28.899 17.7949 29.0814 17.1282 29.1042 16.4103C29.1194 16.1026 29.1042 15.7949 29.0586 15.4872C28.9978 15.0256 28.8762 14.5812 28.6938 14.1538C28.481 13.6923 28.215 13.2821 27.8958 12.9231C27.6374 12.5983 27.3485 12.3077 27.0293 12.0513C26.9989 12.0171 26.9609 11.9914 26.9153 11.9743C26.8849 11.9402 26.8697 11.8974 26.8697 11.8461C26.8697 11.7949 26.8697 11.735 26.8697 11.6667C26.9001 11.4615 26.9001 11.2649 26.8697 11.0769C26.8545 10.8889 26.8165 10.7179 26.7557 10.5641C26.6797 10.3932 26.5961 10.2308 26.5049 10.0769C26.3681 9.85471 26.2161 9.64958 26.0489 9.46154C25.8512 9.25642 25.6536 9.05128 25.456 8.84615C25.4256 8.81197 25.3876 8.77777 25.342 8.74358C25.3268 8.7094 25.3268 8.6752 25.342 8.64101C25.342 8.62392 25.3496 8.60684 25.3648 8.58974C25.4256 8.4359 25.494 8.29061 25.57 8.15386C25.6156 8.0513 25.6688 7.94871 25.7296 7.84615C25.7296 7.82905 25.722 7.81197 25.7068 7.79488C25.6916 7.76069 25.6688 7.7265 25.6384 7.69231C25.532 7.58974 25.4256 7.47862 25.3192 7.35896C24.9088 6.99999 24.4984 6.66668 24.0651 6.35899C23.2671 5.79488 22.4235 5.35897 21.5342 5C20.8958 4.7265 20.2497 4.50428 19.5961 4.33334C19.0793 4.19659 18.5624 4.08546 18.0456 3.99999C18.0304 3.99999 18.0076 3.99999 17.9772 3.99999C17.962 3.99999 17.9468 4.00853 17.9316 4.02563C17.9164 4.05982 17.9012 4.09401 17.886 4.1282C17.8556 4.24786 17.8176 4.36752 17.772 4.48718C17.7568 4.53846 17.734 4.58974 17.7036 4.64102C17.6884 4.67521 17.6656 4.69232 17.6352 4.69232C17.5896 4.69232 17.544 4.68375 17.4984 4.66665C17.4224 4.66665 17.3388 4.66665 17.2476 4.66665C17.0651 4.66665 16.8827 4.66668 16.7003 4.69232C16.5483 4.70941 16.4039 4.73504 16.2671 4.76922C15.9327 4.88888 15.6211 5.06836 15.3322 5.30768C15.013 5.56409 14.7622 5.84615 14.5342 6.17948C14.291 6.53846 14.0706 6.91453 13.873 7.30769C13.645 7.80342 13.4473 8.31624 13.2801 8.84615C13.0673 9.5641 12.8925 10.2991 12.7557 11.0513C12.7405 11.0855 12.7329 11.1111 12.7329 11.1282C12.6645 11.1282 12.6189 11.1538 12.5733 11.1795C12.3301 11.3333 12.1021 11.5043 11.8893 11.6923C11.3876 12.1282 10.9772 12.6154 10.6124 13.2051C10.316 13.6923 10.0651 14.2051 9.85993 14.7692C9.60152 15.4017 9.40391 16.0598 9.2671 16.7436C9.16069 17.2051 9.08469 17.6667 9.03909 18.1282C9.00869 18.3333 8.99349 18.547 8.99349 18.7692C8.97828 18.8547 8.96308 18.9487 8.94788 19.0513C8.94788 19.0684 8.94028 19.0769 8.92508 19.0769C8.86428 19.094 8.81108 19.1111 8.76547 19.1282C8.47666 19.1966 8.18784 19.282 7.89902 19.3846C7.67101 19.4701 7.4582 19.5812 7.26059 19.718C7.03257 19.8376 6.83496 20 6.66775 20.2051C6.56135 20.3248 6.47774 20.4615 6.41694 20.6154C6.28013 20.9231 6.25733 21.2308 6.34853 21.5641C6.41694 21.7949 6.53094 21.9744 6.69055 22.1539C6.85016 22.359 7.07818 22.5385 7.28339 22.6923C7.4962 22.8291 7.71661 22.9402 7.94463 23.0257C8.30945 23.1795 8.67427 23.2906 9.03909 23.359C9.15309 23.3846 8.78827 25.8462 11 26.4872C11.228 28.1539 9.92834 29.8718 10.316 31.8205C10.7036 33.7692 11.2052 34.0256 11.5472 34.4872C11.6232 34.6068 11.7144 34.718 11.8208 34.8205C11.836 34.8376 11.8512 34.8632 11.8664 34.8974C11.8664 34.8974 11.8664 34.906 11.8664 34.9231H11.8436C11.8132 34.9231 11.7904 34.9145 11.7752 34.8974C11.5776 34.7436 11.3876 34.5983 11.2052 34.4615C10.7492 34.1026 10.3084 33.7094 9.88274 33.2821C9.41151 32.8376 8.97068 32.3675 8.56026 31.8718C7.73941 30.8974 7.02497 29.8376 6.41694 28.6923C5.99131 27.9231 5.61889 27.1197 5.29967 26.2821C4.91965 25.2564 4.61564 24.1966 4.38762 23.1026C4.29642 22.641 4.22041 22.1795 4.15961 21.7179C4.14441 21.5128 4.12161 21.3077 4.09121 21.1026C4.076 20.9487 4.0684 20.7949 4.0684 20.641C4.0228 20.359 4.0228 20.0513 4 19.7692C4 19.7179 4 19.6667 4 19.6154C4 19.2906 4 18.9658 4 18.641C4 18.2991 4.0152 17.9658 4.0456 17.641C4.0608 17.4701 4.076 17.2992 4.09121 17.1282C4.09121 17.0086 4.09881 16.8974 4.11401 16.7949C4.19001 16.1795 4.28882 15.5727 4.41042 14.9744C4.63844 13.8462 4.95765 12.7436 5.36808 11.6667C5.7785 10.6239 6.26493 9.63249 6.82736 8.69231C7.22258 8.02565 7.65581 7.38462 8.12704 6.76924C8.50706 6.29061 8.90988 5.82052 9.33551 5.35898C9.92834 4.7436 10.544 4.1795 11.1824 3.66668C12.0489 2.98292 12.9609 2.38463 13.9186 1.87181C14.7698 1.42736 15.6515 1.05983 16.5635 0.769231C17.1107 0.598291 17.6656 0.453004 18.228 0.333346C18.5168 0.282064 18.798 0.230757 19.0717 0.179475C19.2693 0.162381 19.4745 0.136758 19.6873 0.10257C19.8469 0.0769293 20.0293 0.0769106 20.1889 0.0512695C20.4853 0.0256285 20.7818 0.025641 21.0554 0C21.2378 0 21.4202 0 21.6026 0C21.7622 0 21.9218 -6.2604e-06 22.0814 0.0256348C22.127 0.0256348 22.165 0.0256348 22.1954 0.0256348C22.4463 0.0256348 22.7199 0.0512946 22.9707 0.0769356C23.1987 0.0769356 23.4267 0.128199 23.6775 0.15384C23.9511 0.188028 24.2248 0.230763 24.4984 0.282045C25 0.384609 25.494 0.504274 25.9805 0.641026C26.9229 0.91453 27.835 1.27349 28.7166 1.71794C30.0087 2.35041 31.2096 3.13676 32.3192 4.07693C32.8056 4.50428 33.2769 4.95725 33.7329 5.43589C34.0521 5.77777 34.3637 6.13676 34.6678 6.51283C35.4582 7.50428 36.1574 8.5812 36.7655 9.74359C37.2823 10.735 37.7079 11.7778 38.0423 12.8718C38.3464 13.7949 38.5744 14.735 38.7264 15.6923C38.7872 16.0513 38.8328 16.4103 38.8632 16.7692C38.8936 16.9744 38.9164 17.1795 38.9316 17.3846C38.962 17.812 38.9848 18.2393 39 18.6667C39 18.7351 39 18.7949 39 18.8462C39 18.9658 39 19.0855 39 19.2051C39 19.3932 38.9924 19.5897 38.9772 19.7949ZM25.3192 16.2308C25.3344 16.1795 25.3572 16.1368 25.3876 16.1026C25.6004 15.6923 25.798 15.2735 25.9805 14.8462C26.1781 14.3846 26.3605 13.9145 26.5277 13.4359C26.5277 13.4017 26.5353 13.359 26.5505 13.3077C26.5733 13.2821 26.5961 13.2821 26.6189 13.3077C26.6493 13.3248 26.6797 13.3504 26.7101 13.3846C26.9609 13.641 27.2117 13.9231 27.4169 14.2564C27.6678 14.6667 27.8502 15.1026 27.9414 15.5898C27.9642 15.7949 27.987 15.9744 27.987 16.2308C27.987 16.5727 27.9262 16.9145 27.8046 17.2564C27.7286 17.4957 27.6221 17.7008 27.4853 17.8718C27.3789 18.0256 27.2573 18.1453 27.1205 18.2308C27.0293 18.282 26.9305 18.3162 26.8241 18.3333C26.7785 18.3333 26.7329 18.3333 26.6873 18.3333C26.5657 18.2991 26.4593 18.2564 26.3681 18.2051C26.2085 18.0769 26.0717 17.9231 25.9349 17.7436C25.8436 17.6068 25.76 17.4615 25.684 17.3077C25.5472 17.0171 25.4256 16.7094 25.3192 16.3846C25.3192 16.3675 25.3192 16.3504 25.3192 16.3333C25.304 16.2991 25.304 16.265 25.3192 16.2308ZM14.8306 19.0513C14.8534 19.0257 14.8762 18.9744 14.8762 18.9487C14.9522 18.7607 15.0434 18.5726 15.1498 18.3846C15.355 18.0256 15.6287 17.7436 15.9707 17.5385C16.3203 17.3162 16.6927 17.2137 17.0879 17.2308C17.3616 17.2479 17.6276 17.3162 17.886 17.4359C18.2052 17.5897 18.4864 17.812 18.7296 18.1026C19.1173 18.5897 19.3681 19.1282 19.4593 19.7692C19.5733 20.5897 19.3909 21.3333 18.9805 22C18.7068 22.4274 18.3572 22.7436 17.9316 22.9487C17.5668 23.1197 17.1944 23.188 16.8143 23.1539C16.2975 23.1026 15.8491 22.8718 15.4691 22.4615C15.3322 22.3248 15.2106 22.1624 15.1042 21.9743C15.1042 21.9743 15.1042 21.9658 15.1042 21.9487C15.1194 21.9487 15.127 21.9487 15.127 21.9487C15.1574 21.9658 15.1802 21.9829 15.1954 22C15.3322 22.0855 15.4767 22.1453 15.6287 22.1795C15.8415 22.2308 16.0467 22.2137 16.2443 22.1282C16.4495 22.0257 16.6319 21.8974 16.7687 21.6923C16.9511 21.4615 17.0651 21.2051 17.1335 20.8974C17.1792 20.6923 17.1944 20.4786 17.1792 20.2564C17.1564 19.8718 17.0651 19.5128 16.8599 19.1795C16.7383 18.9915 16.5863 18.8376 16.4039 18.7179C16.2367 18.5983 16.0543 18.5385 15.8567 18.5385C15.6439 18.5385 15.4387 18.5983 15.241 18.7179C15.1498 18.7863 15.0586 18.8633 14.9674 18.9487C14.937 18.9829 14.9066 19.0171 14.8762 19.0513C14.8762 19.0513 14.8534 19.0513 14.8306 19.0513ZM14.7166 30.4872V33.8462H13.4853V29.1538H15.0814C15.7959 29.1538 16.3507 29.3333 16.7459 29.6923C17.2324 30.1197 17.4756 30.7094 17.4756 31.4615C17.4756 32.1624 17.2704 32.7351 16.8599 33.1795C16.4495 33.641 15.9251 33.8718 15.2866 33.8718C15.2182 33.8718 14.8762 33.8462 14.7166 33.8462V32.4872L15.1042 32.4615C15.8339 32.4615 16.1987 32.1282 16.1987 31.4615C16.1987 30.812 15.8415 30.4872 15.127 30.4872H14.7166ZM18.0912 30.4616H19.2313V32.3846C19.2313 32.5898 19.3073 32.6923 19.4593 32.6923C19.5961 32.6923 19.6645 32.5898 19.6645 32.3846V30.4616H20.8046V32.359C20.8046 32.8034 20.6754 33.1795 20.4169 33.4872C20.1585 33.7949 19.8393 33.9487 19.4593 33.9487C19.0185 33.9487 18.6688 33.7692 18.4104 33.4103C18.1976 33.1368 18.0912 32.7522 18.0912 32.2564V30.4616ZM23.4495 32.2564L24.5896 32.2308C24.5592 32.7265 24.3996 33.1282 24.1107 33.4359C23.8067 33.7607 23.4419 33.9231 23.0163 33.9231C22.5755 33.9231 22.203 33.7436 21.899 33.3846C21.5798 33.0427 21.4202 32.6154 21.4202 32.1026C21.4202 31.6239 21.5798 31.2137 21.899 30.8718C22.203 30.5299 22.5755 30.359 23.0163 30.359C23.3963 30.359 23.7307 30.4957 24.0195 30.7692C24.3084 31.0256 24.4908 31.3675 24.5668 31.7949L23.4039 31.8461C23.3127 31.6923 23.1911 31.6154 23.0391 31.6154C22.9023 31.6154 22.7959 31.6667 22.7199 31.7692C22.6287 31.8547 22.5831 31.9744 22.5831 32.1282C22.5831 32.2821 22.6287 32.4017 22.7199 32.4872C22.8111 32.5897 22.9175 32.641 23.0391 32.641C23.2367 32.641 23.3735 32.5128 23.4495 32.2564ZM28.101 30.4359L27.5537 31.6667L28.3746 33.8462H27.1205L26.3909 31.6154L26.9153 30.4359H28.101ZM26.3453 29.1538V33.8462H25.2052V29.1538H26.3453ZM15.6059 8.84615L16.2899 6.79487C16.3811 6.53846 16.5255 6.36752 16.7231 6.28205C16.9359 6.17949 17.1564 6.17949 17.3844 6.28205C17.6732 6.40171 17.848 6.63247 17.9088 6.97435C18.0456 6.85469 18.1748 6.79487 18.2964 6.79487C18.418 6.77778 18.5624 6.79486 18.7296 6.84614C18.9729 6.9658 19.1325 7.1282 19.2085 7.33333C19.2845 7.55555 19.2693 7.8205 19.1629 8.12819L18.4788 10.1026L17.6808 9.74359L18.2964 7.89745C18.3268 7.81198 18.342 7.75213 18.342 7.71794C18.342 7.66666 18.3192 7.63247 18.2736 7.61537C18.1976 7.58118 18.1368 7.64103 18.0912 7.79488L17.4528 9.64102L16.6319 9.3077L17.2704 7.46153C17.3008 7.35897 17.316 7.29061 17.316 7.25642C17.3008 7.22224 17.278 7.19658 17.2476 7.17949C17.1564 7.1453 17.0879 7.20512 17.0423 7.35896L16.4039 9.20514L15.6059 8.84615ZM21.8762 8.28206L21.2378 10.1282C21.1314 10.453 20.949 10.6667 20.6906 10.7692C20.4473 10.8889 20.1661 10.8803 19.8469 10.7436C19.5429 10.6239 19.3453 10.4273 19.2541 10.1538C19.1477 9.89743 19.1553 9.59828 19.2769 9.2564L19.8925 7.4359L20.7134 7.79488L20.0977 9.58975C20.0369 9.76069 20.0673 9.87178 20.1889 9.92307C20.2953 9.97435 20.3789 9.91453 20.4397 9.74359L21.0554 7.92308L21.8762 8.28206ZM23.1075 10.2564L23.8827 10.5898C23.9739 10.8804 23.9739 11.1453 23.8827 11.3846C23.7915 11.6581 23.6167 11.8461 23.3583 11.9487C23.0999 12.0513 22.8263 12.0427 22.5375 11.9231C22.1726 11.7521 21.9142 11.4701 21.7622 11.0769C21.595 10.6667 21.5874 10.2564 21.7394 9.84616C21.8762 9.41881 22.127 9.11967 22.4919 8.94872C22.8415 8.77778 23.2139 8.77778 23.6091 8.94872C23.7459 9.0171 23.8827 9.11111 24.0195 9.23077L23.7459 10.0769C23.6395 9.95728 23.5331 9.88035 23.4267 9.84616C23.2291 9.76069 23.0543 9.75215 22.9023 9.82053C22.7351 9.8889 22.6211 10.0256 22.5603 10.2308C22.4843 10.4188 22.4843 10.5983 22.5603 10.7692C22.6211 10.9402 22.7503 11.0684 22.9479 11.1538C23.0695 11.2051 23.1455 11.188 23.1759 11.1026C23.1911 11.0513 23.1607 11.0086 23.0847 10.9744L22.8795 10.8974L23.1075 10.2564Z" fill="#FF7F1D"/>
    </g>
    <defs>
        <filter id="filter0_d_846_34" x="0" y="0" width="43" height="43" filterUnits="userSpaceOnUse" color-interpolation-filters="sRGB">
            <feFlood flood-opacity="0" result="BackgroundImageFix"/>
            <feColorMatrix in="SourceAlpha" type="matrix" values="0 0 0 0 0 0 0 0 0 0 0 0 0 0 0 0 0 0 127 0" result="hardAlpha"/>
            <feOffset dy="4"/>
            <feGaussianBlur stdDeviation="2"/>
            <feComposite in2="hardAlpha" operator="out"/>
            <feColorMatrix type="matrix" values="0 0 0 0 1 0 0 0 0 0.225 0 0 0 0 0.225 0 0 0 0.1 0"/>
            <feBlend mode="normal" in2="BackgroundImageFix" result="effect1_dropShadow_846_34"/>
            <feBlend mode="normal" in="SourceGraphic" in2="effect1_dropShadow_846_34" result="shape"/>
        </filter>
    </defs>
</svg>